<svg version="1.1" id="Layer_1" xmlns="http://www.w3.org/2000/svg" xmlns:xlink="http://www.w3.org/1999/xlink" x="0px" y="0px"
	 width="100%" viewBox="0 0 963 583" enable-background="new 0 0 963 583" xml:space="preserve">
<path fill="#010000" opacity="1.000000" stroke="none" 
	d="
M537.000000,584.000000 
	C359.500000,584.000000 182.499985,583.986206 5.500057,584.093750 
	C1.750700,584.096069 0.904264,583.249268 0.906350,579.499939 
	C1.012790,388.166656 1.012790,196.833328 0.906350,5.500052 
	C0.904264,1.750733 1.750889,0.905676 5.500030,0.906865 
	C323.500000,1.007717 641.500000,1.007717 959.500000,0.906865 
	C963.249084,0.905676 964.095764,1.750733 964.093689,5.500052 
	C963.987244,196.833328 963.987244,388.166656 964.093689,579.499939 
	C964.095764,583.249268 963.249390,584.097046 959.499939,584.094116 
	C818.833313,583.982605 678.166687,584.000000 537.000000,584.000000 
z"/>
<path fill="#F9E4E3" opacity="1.000000" stroke="none" 
	d="
M444.870850,184.184906 
	C450.393066,184.639252 454.636932,180.869797 459.790253,180.596451 
	C461.766357,180.491623 461.308044,177.743454 460.190918,176.521118 
	C453.836334,169.568146 454.619659,160.913559 455.036560,152.706146 
	C455.208649,149.318130 456.997437,145.637787 459.442413,142.342758 
	C463.280853,137.169861 466.892059,131.978195 473.570709,131.010071 
	C482.821198,129.669128 491.997864,128.099838 500.987579,133.640839 
	C509.074707,138.625473 512.776489,145.743866 514.770813,154.390762 
	C514.868103,154.812515 515.388428,155.136688 515.982422,155.812347 
	C516.389099,163.188721 514.846985,169.769882 510.229828,175.746429 
	C506.813690,178.730133 509.261017,180.237839 511.477875,180.780548 
	C524.358215,183.933868 536.558350,188.671432 547.665649,195.947113 
	C552.930969,199.396149 557.481384,203.785217 562.244568,207.902832 
	C572.331299,216.622482 580.014160,227.263062 585.467407,239.128159 
	C590.012207,249.016754 593.731506,259.539368 593.950562,270.751587 
	C593.998413,273.201477 594.821533,273.905975 597.142456,273.778503 
	C599.121887,273.669769 601.123230,274.023163 603.117554,274.108582 
	C607.601807,274.300781 613.249695,278.717468 613.333923,282.135315 
	C613.445251,286.652679 609.276306,289.873230 603.260071,289.872589 
	C538.117310,289.865540 472.974579,289.851135 407.831818,289.842377 
	C393.503906,289.840454 379.176025,289.857147 364.848114,289.855194 
	C361.703766,289.854767 359.084015,289.016510 358.031433,285.598145 
	C357.056152,282.430664 356.200775,279.511719 359.163544,276.618378 
	C360.300232,275.508331 361.124664,275.298889 362.424225,275.314728 
	C365.089111,275.347290 367.774445,275.099243 370.415619,275.347229 
	C374.219421,275.704407 375.408203,274.742767 375.117889,270.500793 
	C374.881653,267.048431 377.486115,263.453949 377.488373,259.921631 
	C377.492584,253.360840 381.613251,248.198059 382.720245,241.950409 
	C383.331482,238.500687 386.207611,234.625397 388.666321,231.297058 
	C392.211273,226.498184 395.699524,221.657394 399.363953,216.518829 
	C402.318085,211.488937 406.812347,208.364960 410.755066,204.260635 
	C410.994019,204.023193 411.014832,204.010040 411.017792,203.998093 
	C414.387634,202.096786 416.978851,199.088409 420.776917,197.223175 
	C421.056824,197.029022 421.006836,196.997543 421.013611,197.026306 
	C422.247711,194.375488 425.473328,194.365509 427.382568,192.106155 
	C427.528503,191.810349 427.758698,191.670578 427.824768,191.553253 
	C431.049438,190.833679 433.793854,189.318527 436.665161,187.315613 
	C436.901398,187.068863 437.032288,186.993515 437.059021,186.922882 
	C439.664459,186.247375 442.431244,186.221207 444.870850,184.184906 
z"/>
<path fill="#FBE5E4" opacity="1.000000" stroke="none" 
	d="
M578.982910,326.389954 
	C559.651367,326.842804 540.268921,326.928711 520.431519,326.888336 
	C520.155640,326.338318 520.091980,325.709900 520.772644,325.685333 
	C530.844116,325.322449 540.907410,325.613647 550.971924,325.475159 
	C523.441833,325.487854 495.916931,326.141205 467.939606,326.299316 
	C465.047302,326.562592 462.604156,326.459961 459.710632,326.450073 
	C453.898804,325.687225 448.531372,325.876129 442.708313,326.384216 
	C432.422211,326.472412 422.589844,326.546234 412.325684,326.232574 
	C406.322479,325.649445 400.764099,326.328857 395.139404,324.937683 
	C391.868927,324.128784 388.075806,324.250305 384.440460,325.753876 
	C380.494507,327.385895 376.504181,324.037354 372.342285,324.697601 
	C370.899567,324.926453 369.447205,324.457092 367.964386,325.169220 
	C363.806641,327.166077 357.511108,323.226501 357.270874,318.595306 
	C357.007263,313.514526 360.888489,310.100189 367.196381,310.085266 
	C387.689911,310.036804 408.183594,310.043823 428.677216,310.045746 
	C487.325287,310.051300 545.973450,310.094269 604.621399,310.021240 
	C609.494324,310.015198 611.055725,313.685883 612.819824,316.791382 
	C614.289307,319.378357 611.502930,321.157593 609.931396,322.873138 
	C605.807800,327.374390 600.385803,327.451721 594.415649,326.886536 
	C593.942993,326.308350 594.071350,325.762299 593.295837,325.835785 
	C585.273499,326.596069 577.279175,325.157471 569.261414,325.524170 
	C568.595764,325.561279 569.605164,326.409973 569.290100,325.822449 
	C569.174866,325.607574 569.293274,325.455109 569.632568,325.489807 
	C572.724670,325.806183 575.885010,324.936615 578.982910,326.389954 
z"/>
<path fill="#FEF8F8" opacity="1.000000" stroke="none" 
	d="
M703.888489,450.862854 
	C709.105957,453.719208 713.178345,458.537231 719.712524,458.026489 
	C720.298950,457.980621 721.545044,459.409058 721.521667,460.121307 
	C721.484619,461.252533 720.209778,461.934235 719.061951,461.986389 
	C714.767883,462.181366 710.468689,462.326843 706.170776,462.343750 
	C704.236084,462.351349 702.508850,462.421814 701.389282,464.712830 
	C699.931458,463.775940 699.018677,462.509094 697.347717,462.386108 
	C686.646790,461.598602 680.005981,454.953247 674.542297,446.598083 
	C674.271484,446.183899 673.882263,445.848999 673.296509,445.213196 
	C673.050293,444.944305 672.829407,444.562103 672.897095,444.352020 
	C668.930908,433.748871 670.068176,422.871399 670.029419,412.117462 
	C670.005432,405.461060 670.015198,398.932495 666.064514,393.014771 
	C664.147583,390.143311 664.915222,387.241211 668.145874,385.396973 
	C675.211121,381.363678 681.473206,376.222260 687.841675,371.219360 
	C689.114807,370.219177 690.653320,368.937134 692.364563,369.730652 
	C694.294861,370.625732 693.419617,372.680847 693.450439,374.231049 
	C693.546326,379.055847 693.608398,383.887604 693.469299,388.709198 
	C693.388184,391.523376 694.464355,392.613251 697.221252,392.601044 
	C702.048096,392.579681 706.877136,392.533173 711.703430,392.632324 
	C717.571777,392.752808 718.601501,393.889740 719.030029,399.588226 
	C719.367126,404.070465 719.232117,408.548340 719.291809,413.027313 
	C719.316711,414.892792 718.954773,416.884766 717.139465,417.796051 
	C714.949890,418.895203 713.989929,416.648041 712.329224,415.295532 
	C712.052551,414.963715 711.999817,414.998199 712.021484,414.975067 
	C710.907776,413.976318 710.695374,412.326630 709.260071,411.180237 
	C709.055786,410.939606 709.002441,410.994934 709.033936,410.973145 
	C706.435059,405.924774 701.364990,403.377472 697.436523,399.684265 
	C695.534973,397.896576 693.540405,398.702576 693.501709,401.545410 
	C693.448486,405.454132 692.031738,409.220001 692.517029,412.855347 
	C694.105164,412.381531 689.953918,407.809509 695.101440,409.596222 
	C695.094666,415.642975 694.990967,421.358398 694.800049,427.534241 
	C694.389709,428.464630 694.189453,428.958099 694.561890,429.770142 
	C694.784790,430.801147 694.863831,431.595764 695.174683,432.717255 
	C691.907776,437.518341 696.317627,440.623657 697.458557,444.253357 
	C697.820007,445.403198 699.098816,446.276398 699.901855,447.707733 
	C700.926392,448.564575 701.677856,449.219360 702.628845,450.099823 
	C703.183350,450.300751 703.479065,450.421326 703.888489,450.862854 
z"/>
<path fill="#FBF1F2" opacity="1.000000" stroke="none" 
	d="
M504.013031,373.352051 
	C509.541626,370.574829 515.467224,369.182526 519.661865,364.185028 
	C520.127502,363.876129 520.310486,363.750031 520.814697,363.712433 
	C521.496704,363.846466 521.857544,363.892029 522.489990,363.904022 
	C526.482422,364.819305 525.436279,367.926361 525.446106,370.300537 
	C525.534363,391.565094 525.496399,412.830200 525.496460,434.095123 
	C525.496460,441.571075 525.514893,449.047089 525.484497,456.522949 
	C525.475769,458.665619 525.703674,460.908142 523.265930,462.704102 
	C521.600159,464.083344 520.004089,464.350098 518.638672,463.764832 
	C513.718506,461.655762 508.892731,461.868744 503.860626,463.411621 
	C500.537231,464.430634 500.117249,462.114319 500.137268,459.446442 
	C500.217224,448.799896 500.208893,438.152588 500.208923,427.505585 
	C500.208923,415.693909 500.132080,403.881866 500.211029,392.070831 
	C500.226379,389.778687 500.113464,387.961884 497.191315,387.490234 
	C498.364471,385.593079 497.712585,384.029755 497.039368,382.531647 
	C495.550201,379.217499 495.992920,376.788757 499.881805,375.737335 
	C501.341797,375.342621 502.399078,374.219696 504.013031,373.352051 
z"/>
<path fill="#FAF4F4" opacity="1.000000" stroke="none" 
	d="
M565.945190,375.590912 
	C565.484192,380.517334 565.566345,385.309113 565.567078,390.094086 
	C565.570618,412.397675 565.612732,434.701263 565.572693,457.004761 
	C565.567017,460.174530 566.879944,462.940918 560.568359,462.984131 
	C555.277405,463.020325 549.578186,459.929382 544.119202,463.237213 
	C543.151672,463.823517 540.885681,461.533081 541.350708,459.573700 
	C542.358643,455.326935 541.716187,451.002563 541.860962,446.790405 
	C542.443787,429.833038 541.971191,412.842041 542.222107,395.868408 
	C542.273560,392.382629 538.560120,390.658020 539.552734,387.049622 
	C541.753174,385.201965 539.356934,384.097137 539.237244,382.325623 
	C538.482117,379.333679 539.430664,377.467896 541.819641,376.241699 
	C548.132751,373.001465 554.279236,369.445465 560.604187,366.231567 
	C564.460022,364.272369 565.392578,364.965881 565.487488,369.452484 
	C565.529480,371.437683 565.383789,373.426056 565.945190,375.590912 
z"/>
<path fill="#FDF5F6" opacity="1.000000" stroke="none" 
	d="
M190.705444,461.721252 
	C189.099991,464.309631 187.431351,466.602081 184.363007,463.266968 
	C179.692657,461.821930 175.179901,462.374725 170.777603,462.609406 
	C166.337555,462.846069 165.957916,460.654144 165.968826,457.213165 
	C166.034744,436.442596 165.993546,415.671631 166.007263,394.900818 
	C166.013275,385.806213 165.840637,376.707397 166.765411,367.204407 
	C167.178009,366.565643 167.366730,366.390961 167.763672,366.161865 
	C174.940475,364.063812 182.021973,364.946106 189.510071,365.793579 
	C189.923996,366.052521 190.002991,366.018799 189.973618,366.050171 
	C192.994156,371.030914 191.239517,376.494049 191.298279,381.657684 
	C191.577850,406.223663 191.435699,430.794403 191.422745,455.363434 
	C191.421692,457.372864 191.185608,459.330292 190.705444,461.721252 
z"/>
<path fill="#FBF1F2" opacity="1.000000" stroke="none" 
	d="
M764.608398,465.186035 
	C762.834595,463.260529 760.829468,464.332367 759.130554,463.909271 
	C756.457520,463.243530 753.520447,465.032837 750.864197,462.500946 
	C750.112671,461.784607 747.661865,461.758789 746.116577,460.944122 
	C746.071350,460.920258 745.724792,461.436951 745.695435,461.418610 
	C744.351013,460.579132 742.774780,459.936829 741.742554,458.801483 
	C736.990356,453.574799 731.852600,448.649231 728.199646,442.512848 
	C726.505005,439.666260 727.121216,436.438660 726.878296,433.355225 
	C726.703247,431.133606 727.190979,428.900177 724.821533,427.114929 
	C723.632385,426.218994 722.634155,423.984070 725.942566,423.052063 
	C727.883240,422.505371 726.689819,419.773682 727.358704,418.127045 
	C732.486389,405.502777 740.667969,396.356079 754.771301,393.915894 
	C755.634277,393.766571 756.450867,393.593018 756.780762,392.716980 
	C757.326538,391.267578 757.883667,390.884399 759.183167,392.150330 
	C760.153015,393.095184 760.883301,393.416595 760.167297,395.249969 
	C759.112427,397.951019 756.990479,399.460175 755.092285,401.683167 
	C753.288940,407.954071 751.333618,413.853088 751.385986,420.269562 
	C751.426208,425.190247 752.350403,429.808411 754.113892,434.741211 
	C754.428467,435.278351 754.548828,435.456421 754.730591,435.950958 
	C755.523193,436.435425 755.451599,437.099823 755.739319,437.878754 
	C755.854492,438.144257 756.052612,438.402374 756.072083,438.563904 
	C760.154663,444.841431 765.911682,448.721039 772.564331,451.571503 
	C774.313232,452.320831 775.900879,452.724670 777.773132,452.623260 
	C780.421753,452.479797 783.069946,452.814575 785.642273,453.460602 
	C786.924011,453.782532 788.248352,454.381104 788.375122,455.968384 
	C788.485413,457.349640 787.324585,457.920837 786.339111,458.521729 
	C779.755798,462.535583 772.700684,465.092224 764.608398,465.186035 
z"/>
<path fill="#FBF1F2" opacity="1.000000" stroke="none" 
	d="
M348.291687,454.208923 
	C347.529846,453.414642 346.973297,452.901245 346.255585,452.150543 
	C345.484833,451.465027 345.230377,450.654053 344.312805,450.115662 
	C344.137115,449.890442 344.035614,449.937469 344.072083,449.895050 
	C343.910950,449.737610 343.713379,449.622620 343.388885,449.189087 
	C343.261963,448.870514 343.151184,448.874786 343.156372,448.819611 
	C333.485291,438.414001 334.683746,416.332001 343.254608,406.436462 
	C348.358490,400.543793 354.160522,396.507233 361.461853,394.324921 
	C363.305359,393.773926 365.439819,392.315002 366.997833,394.181976 
	C368.733856,396.262268 365.827850,397.611115 365.346191,399.815674 
	C365.246094,400.198578 365.000000,400.001221 365.123810,400.098633 
	C359.547241,413.973541 358.369995,427.520142 367.484894,440.905457 
	C367.662292,441.260468 367.908600,441.486328 367.965240,441.643494 
	C368.345459,442.270172 368.831696,442.499908 369.374451,442.966187 
	C369.407928,443.236694 369.656006,443.323395 369.703674,443.445862 
	C370.211945,443.705170 370.504608,443.998993 370.852478,444.702545 
	C371.104553,444.928253 371.027679,444.983093 371.043518,444.938599 
	C372.385712,446.012146 374.015442,446.644897 375.625061,447.883728 
	C375.822235,448.142151 375.900848,448.089325 375.894897,448.136292 
	C381.009613,450.915466 386.155701,453.543854 392.272430,452.591827 
	C392.757111,452.516327 393.269440,452.572174 393.762177,452.630463 
	C395.379791,452.821808 397.598175,452.575317 397.999847,454.451508 
	C398.430267,456.462097 396.414185,457.475067 394.874420,458.474121 
	C390.178894,461.520538 384.901398,463.093475 379.457092,463.496674 
	C368.689911,464.294067 358.437988,462.601807 349.453156,455.153717 
	C349.147552,454.877167 349.057709,454.931152 349.079193,454.883362 
	C348.899445,454.720276 348.698212,454.605042 348.291687,454.208923 
z"/>
<path fill="#FBEFF0" opacity="1.000000" stroke="none" 
	d="
M588.682983,444.729797 
	C588.181458,438.679077 591.326172,433.320831 590.320618,427.541016 
	C589.984802,425.610596 587.638672,417.336304 586.411987,414.744141 
	C585.740662,413.325531 587.743408,412.224518 586.471008,409.974945 
	C585.010132,407.391907 583.813721,404.652100 581.873108,402.283203 
	C580.524109,400.636444 580.954407,399.006744 582.252808,397.326385 
	C583.761169,395.374268 585.064148,396.598358 586.541260,397.173401 
	C591.573425,399.132629 596.727356,400.515076 601.597473,403.194519 
	C619.079041,412.812561 621.469971,438.590057 608.602112,450.583588 
	C600.617920,458.025238 593.496399,463.128326 579.356628,462.140289 
	C583.532654,456.840210 586.481689,451.174652 588.682983,444.729797 
z"/>
<path fill="#FBECED" opacity="1.000000" stroke="none" 
	d="
M276.910797,395.441040 
	C272.551819,401.357300 271.764221,408.104462 269.625305,414.435608 
	C267.689514,420.165527 268.099884,425.532990 268.040100,431.031250 
	C267.926941,441.442535 269.493683,451.494720 276.897217,459.722839 
	C278.083160,461.040924 276.922882,462.359985 275.355499,462.171295 
	C269.958466,461.521637 264.543427,463.801575 259.236206,458.939453 
	C253.270874,453.474457 247.343567,448.398224 244.357758,440.708771 
	C240.485794,430.737152 242.004395,421.415039 246.426544,411.730194 
	C249.959061,403.993744 255.626526,399.575989 262.896454,396.707458 
	C267.328552,394.958649 271.959930,392.403442 276.910797,395.441040 
z"/>
<path fill="#FBF1F2" opacity="1.000000" stroke="none" 
	d="
M486.373657,440.760468 
	C486.109070,441.460297 486.030243,441.900177 486.068115,442.659790 
	C486.309662,443.153168 486.434540,443.326813 486.371460,443.760468 
	C486.105347,444.461395 486.027130,444.902344 486.065735,445.663696 
	C486.838837,451.030212 486.789764,456.093414 486.286255,461.562256 
	C486.021820,461.963318 485.963440,461.995300 485.974762,462.026611 
	C485.843781,462.174500 485.701508,462.291016 485.506531,462.678345 
	C478.878845,462.758484 472.303833,462.567841 465.265137,462.515442 
	C461.943359,464.560333 460.695435,462.840607 460.591553,460.357758 
	C460.023926,446.790131 459.413605,433.214996 460.758667,419.224121 
	C461.047577,418.450714 461.073700,418.093994 461.060303,417.471283 
	C459.860229,412.047546 460.612885,406.833282 460.771179,401.197266 
	C461.007111,400.133728 461.032684,399.515778 461.019775,398.590485 
	C460.265656,397.189636 460.567139,395.975983 460.780334,394.402710 
	C460.991119,394.007721 461.009766,393.996521 461.006104,393.986206 
	C462.095398,393.245880 463.295105,393.553650 464.739136,393.976196 
	C471.622406,397.750824 477.056793,402.512451 481.568298,408.825806 
	C486.559601,415.758911 487.331390,423.346893 486.397156,431.633942 
	C486.102112,432.454926 486.024353,432.896667 486.064636,433.659119 
	C486.308258,434.152985 486.433807,434.326202 486.371948,434.759888 
	C486.106934,435.460541 486.029358,435.900726 486.069672,436.660278 
	C486.311493,437.152985 486.435455,437.326294 486.374084,437.760010 
	C486.110840,438.460449 486.032898,438.900452 486.072021,439.660095 
	C486.312531,440.153290 486.435944,440.326874 486.373657,440.760468 
z"/>
<path fill="#FEF8F8" opacity="1.000000" stroke="none" 
	d="
M642.443604,463.898407 
	C639.262878,463.668152 636.581116,460.760681 633.416260,463.890503 
	C629.158325,463.401917 628.107666,460.955414 627.943909,457.270782 
	C627.367798,444.306366 628.360962,431.335663 627.617798,418.375702 
	C627.472290,415.837433 627.078186,413.432587 625.899048,411.167267 
	C624.354980,408.200806 625.265137,405.825714 628.157349,404.593323 
	C634.759521,401.780182 640.670654,397.724670 647.022644,394.476898 
	C650.623291,392.635864 651.914490,393.335266 651.945435,397.461975 
	C652.098633,417.942596 651.890503,438.424561 652.078857,458.905304 
	C652.103577,461.587799 650.805542,462.874725 648.347290,463.324036 
	C646.540955,463.654144 644.678101,463.281006 642.443604,463.898407 
z"/>
<path fill="#FBEFF0" opacity="1.000000" stroke="none" 
	d="
M316.711426,405.056519 
	C316.845154,405.338501 316.952454,405.593811 317.057983,405.683472 
	C318.885345,407.481964 321.017761,408.873810 321.758698,411.764465 
	C321.944672,412.045258 322.000000,412.001221 321.971863,412.021851 
	C323.824524,414.573090 325.217407,417.303192 325.271423,420.890869 
	C325.075623,421.585571 325.063171,421.914459 325.129486,422.489746 
	C325.472778,423.497986 326.076569,424.048462 326.708557,424.946991 
	C326.866180,426.475616 326.880402,427.739044 326.847290,429.378998 
	C324.877075,436.015656 324.830933,442.933807 319.952393,448.343628 
	C319.600342,448.406219 319.505066,448.522827 319.467712,448.588226 
	C313.962738,457.997742 305.769379,462.638245 294.995270,463.073120 
	C291.658997,463.207733 291.530609,461.050232 292.464569,459.274323 
	C295.587677,453.335785 297.722565,447.186890 298.638855,440.513306 
	C299.764648,432.313934 300.132751,424.286255 298.623444,415.989960 
	C297.470734,409.653961 294.886566,404.230652 291.859131,398.816681 
	C291.080750,397.424652 290.668304,395.955841 291.529968,394.556946 
	C292.537598,392.920898 294.138641,393.655548 295.601227,393.840302 
	C298.238861,394.173462 300.753754,395.091827 303.757935,395.592743 
	C304.123047,395.789032 304.116730,395.869476 304.153320,395.852509 
	C307.797363,397.336975 311.527283,398.662567 313.884094,402.571564 
	C314.179016,402.760345 314.158844,402.836548 314.196960,402.826538 
	C314.716217,403.827789 315.808868,404.107452 316.711426,405.056519 
z"/>
<path fill="#FBE5E4" opacity="1.000000" stroke="none" 
	d="
M424.182709,428.985291 
	C430.015106,427.544037 435.451019,426.442047 441.167877,426.861481 
	C443.579529,427.038391 445.227936,427.725433 446.641144,429.680756 
	C441.369324,432.153778 438.409332,435.250610 437.661957,441.799805 
	C436.914307,448.351074 437.762787,453.118652 442.452698,457.400635 
	C443.559204,458.410919 444.559631,459.539886 445.689819,460.521027 
	C447.324066,461.939728 445.739563,462.943604 445.197662,463.921661 
	C444.260406,465.613403 443.494690,464.736633 442.791443,463.546722 
	C442.241180,462.615601 440.758209,461.862305 440.296326,462.394409 
	C435.846069,467.521118 431.500549,461.842804 426.987305,462.143860 
	C417.513580,462.775909 410.166931,448.843384 413.921844,439.572296 
	C415.902283,434.682526 419.068359,431.218292 424.182709,428.985291 
z"/>
<path fill="#FBECED" opacity="1.000000" stroke="none" 
	d="
M775.052124,406.300201 
	C775.009216,405.502533 774.974365,405.136658 774.869934,404.504089 
	C773.158752,401.922546 771.697937,399.467285 769.350708,397.287445 
	C766.289734,394.416901 769.870117,393.579712 770.722290,392.304138 
	C772.226685,390.052124 772.382690,392.829254 773.218384,393.338318 
	C775.005310,394.426910 777.196960,394.769043 779.104126,395.249634 
	C791.569336,398.390930 804.127502,415.987091 802.999023,428.476776 
	C802.414368,433.380432 799.323853,431.876190 796.318359,431.233643 
	C794.903748,430.942322 793.870422,430.917572 792.450623,430.926208 
	C791.875671,431.159515 791.687195,431.359467 791.216736,431.258728 
	C790.520325,430.935242 790.105957,430.912384 789.381531,430.922180 
	C788.880493,431.156311 788.689392,431.357849 788.212280,431.256470 
	C786.575562,430.932892 785.224915,430.912201 783.470093,430.925781 
	C781.397522,432.056824 779.787781,431.890198 778.015259,430.347961 
	C777.822327,428.942108 777.838135,427.923004 777.840454,426.521729 
	C777.526367,419.581787 777.572021,412.974579 775.052124,406.300201 
z"/>
<path fill="#FBE5E4" opacity="1.000000" stroke="none" 
	d="
M395.786316,424.834412 
	C388.207001,423.022064 381.414795,414.966064 385.331726,406.478821 
	C387.249329,402.323730 385.656097,397.141510 381.781006,392.783966 
	C388.245392,390.651001 405.316986,398.420715 407.576691,403.549835 
	C412.234558,414.122437 408.743927,422.944458 395.786316,424.834412 
z"/>
<path fill="#FBECED" opacity="1.000000" stroke="none" 
	d="
M635.461548,383.772644 
	C629.830688,379.092773 626.021973,374.486237 628.895508,366.518921 
	C631.249451,359.992279 640.368958,355.658661 647.259399,360.424896 
	C656.191833,366.603546 656.408997,377.034180 647.395386,383.028137 
	C643.812561,385.410706 639.705200,384.178497 635.461548,383.772644 
z"/>
<path fill="#F9E4E3" opacity="1.000000" stroke="none" 
	d="
M442.192596,407.670410 
	C442.837341,412.077087 442.135986,415.572388 438.861725,418.520935 
	C435.906128,421.182556 432.671692,421.841370 428.857422,421.902863 
	C423.221375,421.993713 417.651184,412.468201 418.968872,408.090210 
	C421.262543,400.469452 431.243805,393.457733 439.469666,393.838928 
	C441.388977,393.927887 442.752716,393.376068 441.612335,396.755249 
	C440.575836,399.826508 439.859894,403.893494 442.192596,407.670410 
z"/>
<path fill="#F9E4E3" opacity="1.000000" stroke="none" 
	d="
M231.162537,433.245972 
	C233.793030,432.331055 235.157150,432.476593 235.082657,435.635651 
	C234.898483,443.446259 234.868500,451.265808 235.021973,459.076935 
	C235.109680,463.540375 231.604492,463.345917 229.255264,463.196503 
	C223.270676,462.815826 217.238052,460.295105 211.645630,464.652954 
	C211.141418,465.045868 210.317352,464.990662 210.067139,464.139954 
	C209.634201,462.668091 209.405365,460.941254 210.813766,460.069672 
	C218.328949,455.419037 222.029480,447.341034 228.003159,441.401672 
	C230.706848,438.713562 227.306427,434.949799 231.162537,433.245972 
z"/>
<path fill="#DB9B9E" opacity="1.000000" stroke="none" 
	d="
M712.018860,415.195740 
	C717.821472,418.186432 717.830872,418.186462 717.847717,410.984741 
	C717.857422,406.826752 717.741455,402.666382 717.848877,398.511414 
	C717.935791,395.150452 716.619507,393.682220 713.125488,393.822540 
	C707.977173,394.029358 702.793579,393.619080 697.666199,394.010742 
	C692.947083,394.371246 691.840576,392.236084 692.325378,388.147308 
	C693.025757,382.240356 692.855591,376.327454 692.512024,369.820374 
	C685.884033,373.383942 680.913452,378.268738 675.240295,382.137024 
	C672.238281,384.183929 668.214539,385.629333 666.518860,388.463287 
	C664.499756,391.837677 669.137085,394.727325 669.848145,398.285400 
	C670.637085,402.233093 671.013367,406.144379 670.968018,410.148224 
	C670.840820,421.380280 670.444641,432.639252 673.231689,443.887634 
	C670.547485,439.885284 669.317200,435.440796 669.547241,430.416199 
	C669.874023,423.279297 669.891846,416.103027 669.539490,408.968384 
	C669.266602,403.442017 668.479370,397.962738 664.772827,393.282837 
	C662.216675,390.055328 663.376099,386.707520 667.455627,384.582123 
	C675.292786,380.498962 682.387146,375.436493 688.502014,369.048096 
	C689.697449,367.799194 691.020874,367.001343 692.697693,366.559998 
	C694.181824,366.169373 694.849731,367.037689 695.557434,367.943268 
	C696.697876,369.402649 695.432312,369.402527 694.543457,370.197083 
	C692.249390,372.247650 693.344666,384.498260 695.897827,387.745850 
	C694.556274,391.147034 696.354614,391.526215 698.724365,391.517975 
	C703.697937,391.500671 708.672180,391.466064 713.645081,391.526825 
	C718.299072,391.583649 719.372925,392.862640 719.532532,397.358307 
	C719.778809,404.297119 720.072327,411.233093 719.966187,418.176697 
	C719.941956,419.757629 720.351196,421.776306 718.177307,422.306488 
	C716.141541,422.802948 715.318909,421.109192 714.272827,419.254395 
	C713.372437,417.704712 712.678833,416.566223 712.018860,415.195740 
z"/>
<path fill="#DB9B9E" opacity="1.000000" stroke="none" 
	d="
M642.181519,464.406158 
	C642.692810,461.003357 645.177856,462.094727 646.908386,462.153809 
	C649.805847,462.252808 651.172852,461.449554 651.160095,458.292511 
	C651.078003,437.979126 651.110413,417.665253 651.112488,397.351562 
	C651.112732,394.785797 650.788025,393.522217 647.746033,395.316559 
	C641.733948,398.862854 635.546265,402.134094 629.289246,405.232605 
	C626.265503,406.729919 625.215515,408.345245 627.110107,411.396759 
	C628.843506,414.188599 629.036560,417.338928 629.029358,420.547333 
	C629.002747,432.369324 629.156006,444.192993 628.993652,456.012604 
	C628.948059,459.333466 629.588623,461.854187 632.928223,463.602783 
	C631.905884,464.851013 630.931824,466.843506 629.188110,464.287689 
	C627.013855,462.670441 627.607178,460.547455 627.506104,458.614136 
	C626.812622,445.350677 627.835327,432.067139 627.033508,418.804108 
	C626.951721,417.451141 626.611084,416.187439 626.237122,414.460999 
	C621.382996,406.892059 622.110229,405.742920 630.215088,402.562103 
	C636.090088,400.256470 641.438538,396.616547 647.041382,393.608398 
	C652.503052,390.675964 652.826965,390.908966 652.821899,397.065948 
	C652.805359,417.167023 652.792786,437.268188 652.841492,457.369171 
	C652.858459,464.394073 652.330139,465.021271 645.327942,464.968628 
	C644.338440,464.961182 643.349670,464.847473 642.181519,464.406158 
z"/>
<path fill="#843E40" opacity="1.000000" stroke="none" 
	d="
M523.253784,462.984924 
	C523.833435,461.574677 524.179993,460.090607 524.177917,458.355072 
	C524.140808,427.968689 524.173950,397.582245 524.153748,367.195831 
	C524.153137,366.252289 523.745056,365.308990 523.144226,364.118042 
	C526.300720,362.207428 526.741577,364.438782 526.798035,367.102722 
	C526.910522,372.414429 527.098755,377.726807 527.085022,383.038513 
	C527.019653,408.287292 526.880249,433.535858 526.822510,458.784637 
	C526.817200,461.109680 526.949829,463.250549 523.253784,462.984924 
z"/>
<path fill="#843E40" opacity="1.000000" stroke="none" 
	d="
M304.060150,395.414001 
	C300.999634,396.914276 298.367645,394.704498 295.441132,394.515839 
	C294.329041,394.444153 292.994171,393.839691 292.194153,394.973480 
	C291.382660,396.123444 292.305878,397.156281 292.914551,398.140289 
	C300.551239,410.486053 302.325897,424.154968 300.382904,438.077240 
	C299.372925,445.314117 298.081421,452.988831 293.087158,459.093658 
	C292.274902,460.086548 292.020386,461.215454 292.825012,462.290833 
	C293.743774,463.518646 294.489655,461.999146 295.373322,461.993530 
	C305.573822,461.928741 312.657013,456.225250 319.138092,448.791809 
	C319.373138,452.606476 316.295685,454.943237 313.840332,456.916901 
	C308.161041,461.482025 301.621918,464.585815 293.943604,464.026703 
	C292.677063,463.934509 291.101074,464.336365 290.511383,462.893768 
	C290.032379,461.721954 289.885254,460.268311 290.900909,459.123169 
	C296.236664,453.107178 297.087585,445.522491 298.256226,437.656525 
	C298.911560,432.064667 298.254669,426.845093 298.882019,421.298767 
	C297.558197,413.002655 294.753174,405.525604 290.743378,398.447296 
	C288.513123,394.510254 289.520142,393.217529 294.071838,393.076263 
	C297.555420,392.968231 300.736694,394.148865 304.060150,395.414001 
z"/>
<path fill="#843E40" opacity="1.000000" stroke="none" 
	d="
M166.642639,366.913544 
	C167.082367,396.643311 167.231491,426.502563 167.080872,456.360321 
	C167.058578,460.779083 167.979309,462.600739 172.679825,462.129211 
	C176.273483,461.768677 179.950684,462.240875 183.837585,462.705566 
	C178.931152,463.106201 173.758408,462.890015 168.632202,463.282135 
	C165.810684,463.497955 165.124756,462.633698 165.131104,460.077362 
	C165.173645,442.956421 165.122025,425.835297 165.130066,408.714233 
	C165.136032,396.012573 165.170029,383.310822 165.241409,370.609406 
	C165.248337,369.375519 164.696381,367.878326 166.642639,366.913544 
z"/>
<path fill="#DB9B9E" opacity="1.000000" stroke="none" 
	d="
M365.557037,400.050690 
	C364.256470,398.019958 366.913879,396.728333 366.654205,394.703918 
	C350.764008,395.900879 338.634521,409.588501 337.086151,424.051544 
	C336.143372,432.857880 338.632446,440.687012 343.177460,448.402008 
	C338.951385,445.184662 336.675018,440.366638 336.190277,435.130676 
	C335.549133,428.205292 335.681702,421.195587 337.114807,414.282959 
	C337.579315,412.042572 339.787872,411.530273 340.787476,409.622437 
	C345.016357,401.550903 351.396545,395.741760 360.523712,393.518188 
	C361.393585,393.306274 361.977386,392.913422 362.542908,392.264404 
	C364.518707,389.996918 366.833160,392.515198 368.938354,391.869324 
	C369.237061,393.741486 369.073517,395.469208 367.752014,397.007996 
	C367.008514,397.873749 366.488617,398.931549 365.557037,400.050690 
z"/>
<path fill="#DB9B9E" opacity="1.000000" stroke="none" 
	d="
M349.282410,455.183624 
	C357.046570,459.004181 364.799835,463.499329 374.225220,463.019501 
	C382.804657,462.582703 390.869110,460.857849 398.877808,454.050507 
	C390.017090,453.607666 382.231873,454.060455 375.937134,448.529724 
	C383.255432,453.173157 391.790375,450.668243 399.740723,451.912994 
	C400.583679,452.044952 401.794708,451.298767 402.100067,452.888214 
	C402.336975,454.121094 401.482452,454.669922 400.772919,455.344238 
	C394.812683,461.008820 386.960266,464.235443 379.553772,464.842224 
	C373.497803,465.338409 366.426086,464.473785 360.044189,462.101440 
	C355.938904,460.575348 352.585114,458.293884 349.282410,455.183624 
z"/>
<path fill="#DB9B9E" opacity="1.000000" stroke="none" 
	d="
M764.484436,465.230713 
	C772.623108,463.368866 780.861755,461.535614 788.088928,455.993774 
	C785.481140,453.722778 782.641785,454.215332 779.940002,453.977875 
	C769.628601,453.071503 761.478271,448.551331 756.117065,439.090607 
	C760.458923,442.215759 764.375671,446.075714 769.251343,449.179626 
	C775.017395,452.850403 780.574402,450.786346 786.098206,451.729065 
	C788.260498,452.098114 791.488403,450.460724 792.526794,452.964203 
	C793.557312,455.449005 790.016235,457.929535 788.730408,458.596985 
	C783.751099,461.181824 778.956848,464.384796 773.180359,465.437439 
	C770.257751,465.970062 767.517761,465.936371 764.484436,465.230713 
z"/>
<path fill="#DB9B9E" opacity="1.000000" stroke="none" 
	d="
M190.931885,461.895081 
	C189.633087,462.018036 189.247498,461.475281 189.292984,460.175354 
	C190.379471,429.120026 189.642883,398.054688 189.845291,366.537476 
	C193.936462,369.185364 193.379700,373.160553 192.077179,377.686218 
	C192.929565,380.476898 192.313156,382.936798 192.362579,385.812683 
	C191.651825,401.714813 192.131271,417.166962 192.011566,432.615753 
	C191.945892,441.090820 191.972382,449.567047 192.041504,458.513489 
	C192.108429,459.295532 192.151367,459.606812 192.123169,460.383972 
	C191.720993,461.099121 191.389938,461.348358 190.931885,461.895081 
z"/>
<path fill="#DB9B9E" opacity="1.000000" stroke="none" 
	d="
M367.720428,440.978363 
	C363.048553,438.551605 361.609650,433.832764 360.862579,429.156006 
	C359.281738,419.259705 358.918060,409.361267 364.891724,400.253479 
	C365.821381,403.936523 361.189423,407.130676 364.101562,411.116547 
	C358.719696,414.535065 362.828125,419.834442 361.913574,424.167908 
	C360.857666,429.171173 364.958008,434.054688 367.004120,438.921692 
	C367.254242,439.516602 367.520050,440.104889 367.720428,440.978363 
z"/>
<path fill="#DB9B9E" opacity="1.000000" stroke="none" 
	d="
M566.175415,375.341187 
	C563.396118,373.873779 565.219177,370.994080 564.921936,368.592316 
	C564.609436,366.067383 564.002991,365.280975 561.534302,366.669525 
	C555.331360,370.158417 549.068542,373.543091 542.780273,376.876312 
	C540.667786,377.996124 539.078186,379.183502 540.321167,382.248688 
	C540.440796,382.838593 540.448425,383.056549 540.143250,383.354431 
	C539.625122,383.378998 539.419800,383.323639 539.166626,382.952881 
	C539.004761,382.515015 538.890686,382.392548 538.575806,382.119324 
	C535.877319,378.161041 536.189331,377.496246 541.763184,375.308655 
	C548.510620,371.599091 554.903687,367.978668 561.361816,364.478363 
	C564.555603,362.747375 566.294556,363.407501 565.950745,367.489197 
	C565.744080,369.942352 565.999939,372.434448 566.175415,375.341187 
z"/>
<path fill="#DB9B9E" opacity="1.000000" stroke="none" 
	d="
M673.055664,445.297150 
	C676.741089,445.543396 677.523010,449.126068 679.335693,451.461365 
	C683.886169,457.323639 689.676941,460.497498 696.956909,461.087830 
	C699.002502,461.253693 701.083862,461.070740 701.000732,464.420776 
	C691.089172,462.673859 681.629822,459.791534 676.093201,450.186615 
	C675.186829,448.614258 674.076904,447.159241 673.055664,445.297150 
z"/>
<path fill="#DB9B9E" opacity="1.000000" stroke="none" 
	d="
M695.543945,409.763855 
	C694.398865,410.253387 693.217957,406.770752 692.767639,410.135468 
	C692.577026,411.559845 692.735840,413.031006 692.334229,414.476837 
	C692.334229,409.803955 692.178772,405.124054 692.389404,400.460693 
	C692.527954,397.392151 693.443481,394.977081 696.994690,398.182861 
	C701.232361,402.008270 706.576965,404.710785 709.094421,410.594025 
	C705.281982,407.518982 701.473022,404.113892 697.743958,400.623413 
	C697.213501,400.126892 696.658691,399.678406 696.132385,399.969543 
	C695.730713,400.191742 695.658020,400.994171 695.420776,401.530457 
	C694.194641,404.301971 696.967896,406.839081 695.543945,409.763855 
z"/>
<path fill="#0D0809" opacity="1.000000" stroke="none" 
	d="
M714.043579,419.234039 
	C715.487244,419.743378 715.827209,422.712158 718.095703,421.681763 
	C719.848633,420.885620 718.825134,418.668762 718.845764,417.107758 
	C718.928955,410.798187 718.639160,404.476044 718.934692,398.179565 
	C719.144653,393.704865 717.802551,391.757996 713.045532,392.024353 
	C707.925232,392.311035 702.767090,391.838745 697.628174,391.905853 
	C694.875732,391.941772 695.296631,390.482697 695.899292,388.465576 
	C695.884766,390.732910 697.505676,391.021240 699.569397,390.992828 
	C704.378418,390.926605 709.189270,390.931793 713.998718,390.980682 
	C719.260071,391.034149 719.932129,392.564301 720.199402,397.742493 
	C720.563782,404.802643 720.914368,411.854706 721.058167,418.924805 
	C721.117920,421.860840 719.564392,423.430237 717.100586,423.731323 
	C714.307373,424.072662 714.306458,421.573181 714.043579,419.234039 
z"/>
<path fill="#DB9B9E" opacity="1.000000" stroke="none" 
	d="
M466.576111,326.254028 
	C468.147919,325.089203 469.788208,324.934357 471.476624,324.935028 
	C497.801605,324.945435 524.126587,324.945740 550.451538,324.960419 
	C550.929749,324.960693 551.407837,325.108612 551.885498,326.195831 
	C541.457092,326.195831 531.028748,326.195831 520.288452,326.478943 
	C518.914124,326.769287 517.851685,326.776520 516.388672,326.772034 
	C500.964966,326.158539 485.936249,326.616547 470.455566,326.638123 
	C469.260040,326.763123 468.519318,326.771271 467.408875,326.757019 
	C466.857483,326.667358 466.675903,326.600098 466.576111,326.254028 
z"/>
<path fill="#843E40" opacity="1.000000" stroke="none" 
	d="
M460.641724,418.976868 
	C462.013550,431.901245 461.149811,445.015472 461.491425,458.114777 
	C461.537537,459.882843 460.151306,462.850525 464.411865,462.646881 
	C462.677612,465.073547 460.670380,464.557281 460.349365,461.638977 
	C458.833527,447.858795 458.556061,434.021118 459.325836,420.173035 
	C459.345795,419.814575 459.937103,419.487885 460.641724,418.976868 
z"/>
<path fill="#FEF8F8" opacity="1.000000" stroke="none" 
	d="
M192.465637,460.717163 
	C192.025436,460.658478 191.998825,460.467072 191.882965,459.999878 
	C191.159271,446.991241 191.617752,434.250305 191.533127,421.513458 
	C191.457245,410.090912 191.472900,398.667175 191.665680,386.769409 
	C191.892731,383.863831 191.997467,381.432892 192.084015,378.548950 
	C193.509399,378.461151 192.986389,379.654694 192.985901,380.513031 
	C192.970535,407.203522 192.922363,433.893982 192.465637,460.717163 
z"/>
<path fill="#DB9B9E" opacity="1.000000" stroke="none" 
	d="
M754.469482,434.938782 
	C751.848083,433.430206 751.137329,430.711456 751.087952,428.150085 
	C750.919739,419.422424 749.501648,410.478424 754.631836,402.150024 
	C753.394592,405.868347 754.572815,410.189331 752.417053,414.287109 
	C750.971619,417.034821 751.679871,421.151337 752.092773,424.574799 
	C752.509155,428.027466 753.750793,431.380585 754.469482,434.938782 
z"/>
<path fill="#843E40" opacity="1.000000" stroke="none" 
	d="
M625.936890,414.188354 
	C628.531555,415.671417 627.995300,418.179291 628.005554,420.416656 
	C628.062805,432.907257 628.024902,445.398315 627.997070,457.889160 
	C627.992676,459.866425 627.565674,461.921692 629.282837,463.688751 
	C626.346191,463.654266 627.073669,461.438263 627.040527,459.794769 
	C626.953552,455.487671 627.025085,451.177368 626.983093,446.398132 
	C626.039429,441.950653 626.696228,437.925629 626.747681,433.498596 
	C627.761475,426.749908 626.309143,420.586731 625.936890,414.188354 
z"/>
<path fill="#FEF8F8" opacity="1.000000" stroke="none" 
	d="
M466.235168,325.987732 
	C466.657898,325.975281 466.854340,326.352081 466.946716,326.543365 
	C448.796295,326.761444 430.553497,326.788269 412.102173,326.422791 
	C421.982361,326.017120 432.071075,326.003662 442.634949,325.970703 
	C448.051514,325.015259 453.035614,325.706116 458.426636,325.747559 
	C461.174530,325.956848 463.493500,325.978516 466.235168,325.987732 
z"/>
<path fill="#843E40" opacity="1.000000" stroke="none" 
	d="
M503.951172,373.178650 
	C503.921265,374.956421 502.166260,375.166962 500.974213,375.788513 
	C497.662903,377.515045 494.494354,378.885742 498.610687,383.052246 
	C499.835846,384.292358 499.089752,385.817352 497.463684,387.026520 
	C497.932220,383.855255 492.988647,382.951233 494.046753,379.037323 
	C494.584991,377.046295 494.790436,376.094788 496.746399,375.556213 
	C499.061340,374.918793 501.288788,373.963409 503.951172,373.178650 
z"/>
<path fill="#843E40" opacity="1.000000" stroke="none" 
	d="
M510.171356,175.934433 
	C513.252686,170.004929 515.058105,163.570129 516.126465,156.488159 
	C518.537537,159.093506 518.493408,162.144974 516.107666,164.924866 
	C515.362305,165.793335 515.012634,166.525711 515.184937,167.487427 
	C515.925049,171.618484 513.734497,174.065353 510.171356,175.934433 
z"/>
<path fill="#FEF8F8" opacity="1.000000" stroke="none" 
	d="
M470.459900,326.872498 
	C470.752380,326.501892 471.504425,326.027100 472.255585,326.028503 
	C486.624817,326.054932 500.993958,326.137421 515.675598,326.484344 
	C500.965088,326.836945 485.942078,326.913483 470.459900,326.872498 
z"/>
<path fill="#DB9B9E" opacity="1.000000" stroke="none" 
	d="
M579.493530,326.770996 
	C575.169556,324.785095 570.857544,326.858978 566.927612,324.973602 
	C576.382141,324.973602 585.836975,324.940399 595.290955,325.012817 
	C596.567932,325.022614 596.039856,325.596344 595.305054,325.915436 
	C595.001526,326.047241 594.686768,326.153229 594.174316,326.515228 
	C589.298828,326.768005 584.625977,326.776520 579.493530,326.770996 
z"/>
<path fill="#DB9B9E" opacity="1.000000" stroke="none" 
	d="
M189.824432,365.662628 
	C182.909363,366.081696 175.894745,366.110840 168.405533,366.101624 
	C168.048172,365.447113 168.216934,364.286591 168.275330,364.292114 
	C175.410538,364.967346 182.674347,362.956299 189.824432,365.662628 
z"/>
<path fill="#843E40" opacity="1.000000" stroke="none" 
	d="
M410.638550,203.978943 
	C408.254120,208.819626 403.499390,211.798019 399.832153,216.123047 
	C399.528534,212.921448 402.125031,211.445648 404.152679,209.574310 
	C406.193085,207.691132 408.239349,205.814316 410.638550,203.978943 
z"/>
<path fill="#843E40" opacity="1.000000" stroke="none" 
	d="
M319.932861,448.364838 
	C323.247284,442.720154 324.102509,436.073517 326.403259,429.771606 
	C325.727112,436.333832 326.505096,443.563477 319.932861,448.364838 
z"/>
<path fill="#DB9B9E" opacity="1.000000" stroke="none" 
	d="
M700.088867,447.553589 
	C694.159119,442.886230 692.293091,437.918488 695.039673,433.153015 
	C695.597351,433.260803 695.958557,433.483368 695.951355,433.693268 
	C695.902222,435.122040 693.675537,436.495575 695.883789,437.952026 
	C695.917969,437.974609 696.231079,437.574402 696.414001,437.371490 
	C696.287598,438.850006 696.521118,440.450378 696.746399,441.756805 
	C697.081482,443.699707 698.846313,445.396088 700.088867,447.553589 
z"/>
<path fill="#0D0809" opacity="1.000000" stroke="none" 
	d="
M486.554688,431.920227 
	C485.717865,424.412659 486.380005,416.594208 481.853088,409.399231 
	C485.951630,410.097504 485.651215,414.005920 486.091309,416.797668 
	C486.867920,421.724243 489.505585,426.683807 486.554688,431.920227 
z"/>
<path fill="#843E40" opacity="1.000000" stroke="none" 
	d="
M774.864807,406.167297 
	C778.624023,411.915985 778.435974,418.573364 778.003235,425.690735 
	C777.519470,419.463684 775.901489,412.997009 774.864807,406.167297 
z"/>
<path fill="#843E40" opacity="1.000000" stroke="none" 
	d="
M420.684204,197.026459 
	C418.375702,199.921707 415.419952,202.446686 411.376892,203.989441 
	C413.386475,200.689606 416.624359,198.556900 420.684204,197.026459 
z"/>
<path fill="#0D0809" opacity="1.000000" stroke="none" 
	d="
M486.386108,461.915070 
	C485.986053,456.937714 485.950256,451.912140 486.048492,446.435364 
	C487.884583,451.224304 488.365143,456.508087 486.386108,461.915070 
z"/>
<path fill="#843E40" opacity="1.000000" stroke="none" 
	d="
M436.546326,187.109940 
	C435.276581,190.623611 432.358582,191.848434 428.270386,191.542358 
	C430.657684,190.007645 433.424469,188.579330 436.546326,187.109940 
z"/>
<path fill="#843E40" opacity="1.000000" stroke="none" 
	d="
M444.721252,183.974518 
	C443.423584,186.808929 441.071716,188.085373 437.417908,186.937607 
	C439.128845,184.970139 441.604126,184.177536 444.721252,183.974518 
z"/>
<path fill="#843E40" opacity="1.000000" stroke="none" 
	d="
M460.754181,401.050140 
	C461.938599,405.905975 461.274353,411.101135 461.196716,416.741150 
	C459.222626,411.970581 459.789825,406.662231 460.754181,401.050140 
z"/>
<path fill="#843E40" opacity="1.000000" stroke="none" 
	d="
M314.148285,402.413452 
	C310.916931,400.675110 307.654877,398.589905 304.291382,396.170105 
	C308.377411,396.513245 312.005951,398.081421 314.148285,402.413452 
z"/>
<path fill="#843E40" opacity="1.000000" stroke="none" 
	d="
M796.111206,431.278442 
	C798.045227,429.806213 800.790527,431.761505 802.858521,429.235962 
	C803.255859,433.021790 801.744263,433.628204 796.111206,431.278442 
z"/>
<path fill="#843E40" opacity="1.000000" stroke="none" 
	d="
M769.159607,397.389343 
	C773.192871,397.281769 773.338806,401.073944 774.890381,403.873016 
	C771.887085,402.966919 771.188904,399.790527 769.159607,397.389343 
z"/>
<path fill="#843E40" opacity="1.000000" stroke="none" 
	d="
M541.703247,375.198059 
	C540.928772,377.327850 535.844116,377.078674 538.313232,381.697662 
	C537.388000,382.689819 536.249634,382.822784 536.399597,381.320618 
	C536.565979,379.654236 535.381165,377.463867 537.598999,376.365723 
	C538.744995,375.798279 540.071106,375.594330 541.703247,375.198059 
z"/>
<path fill="#0D0809" opacity="1.000000" stroke="none" 
	d="
M298.841797,421.218384 
	C299.063934,426.172058 298.945404,431.394958 298.523071,436.935364 
	C297.963562,431.991547 297.446442,426.725494 298.841797,421.218384 
z"/>
<path fill="#843E40" opacity="1.000000" stroke="none" 
	d="
M427.189514,191.849701 
	C427.587189,195.748734 422.662476,194.167053 421.384521,197.041656 
	C421.443359,193.617188 424.720001,193.399841 427.189514,191.849701 
z"/>
<path fill="#843E40" opacity="1.000000" stroke="none" 
	d="
M325.378235,420.962769 
	C324.050537,418.442017 322.969879,415.625702 321.916443,412.425964 
	C325.154114,414.070801 326.348816,416.959595 325.378235,420.962769 
z"/>
<path fill="#843E40" opacity="1.000000" stroke="none" 
	d="
M321.977966,411.676514 
	C319.672394,410.781860 319.238922,408.019348 317.265045,406.101501 
	C319.983307,406.563507 321.495605,408.499176 321.977966,411.676514 
z"/>
<path fill="#FEF8F8" opacity="1.000000" stroke="none" 
	d="
M626.533508,433.230103 
	C626.943054,437.051636 626.953186,441.031006 626.947998,445.469147 
	C624.840210,441.864197 626.426636,437.566254 626.533508,433.230103 
z"/>
<path fill="#843E40" opacity="1.000000" stroke="none" 
	d="
M777.605652,430.182159 
	C779.215759,430.849426 780.815796,430.507263 782.702271,430.812012 
	C780.156860,432.887451 778.274414,432.702240 777.605652,430.182159 
z"/>
<path fill="#DB9B9E" opacity="1.000000" stroke="none" 
	d="
M375.678040,447.848022 
	C373.756287,448.230865 372.400391,447.057587 371.143890,445.225769 
	C372.711609,445.510345 374.433777,446.008881 375.678040,447.848022 
z"/>
<path fill="#DB9B9E" opacity="1.000000" stroke="none" 
	d="
M709.054260,411.298706 
	C711.150757,411.044617 711.708801,412.590240 712.097778,414.597534 
	C709.754456,415.026703 709.649719,413.118805 709.054260,411.298706 
z"/>
<path fill="#DB9B9E" opacity="1.000000" stroke="none" 
	d="
M540.327271,382.708557 
	C541.155396,384.002838 543.300415,385.347076 540.214111,386.841675 
	C539.882935,386.861237 539.931274,386.431519 539.928223,386.215332 
	C539.485535,385.268158 539.272400,384.499908 539.779724,383.318634 
	C540.020386,382.984528 540.221375,382.796509 540.327271,382.708557 
z"/>
<path fill="#843E40" opacity="1.000000" stroke="none" 
	d="
M539.884399,382.887848 
	C540.062500,383.743408 540.104614,384.502289 540.035889,385.630157 
	C539.519958,385.058746 538.138733,384.529846 538.925232,382.903015 
	C539.355042,382.580841 539.564880,382.632080 539.884399,382.887848 
z"/>
<path fill="#843E40" opacity="1.000000" stroke="none" 
	d="
M316.787994,405.013184 
	C316.049164,404.693390 315.253174,404.048279 314.346130,403.109833 
	C315.506287,402.854431 316.126892,403.760071 316.787994,405.013184 
z"/>
<path fill="#843E40" opacity="1.000000" stroke="none" 
	d="
M326.906860,424.873474 
	C325.736084,425.136383 324.814728,424.839417 325.008636,423.093628 
	C326.100983,422.998352 326.851746,423.446808 326.906860,424.873474 
z"/>
<path fill="#FBF1F2" opacity="1.000000" stroke="none" 
	d="
M694.798584,429.675659 
	C693.364929,429.686218 692.590332,429.210510 694.445740,428.040405 
	C694.772400,428.444733 694.831909,428.894775 694.798584,429.675659 
z"/>
<path fill="#843E40" opacity="1.000000" stroke="none" 
	d="
M460.708496,394.192017 
	C461.669373,395.099060 461.455414,396.284882 461.168945,397.870850 
	C459.945221,397.101807 460.060730,395.756805 460.708496,394.192017 
z"/>
<path fill="#843E40" opacity="1.000000" stroke="none" 
	d="
M464.827515,394.012085 
	C463.929871,394.291229 462.851379,394.249268 461.387634,394.091583 
	C462.074982,392.062408 463.381134,393.136963 464.827515,394.012085 
z"/>
<path fill="#DB9B9E" opacity="1.000000" stroke="none" 
	d="
M344.190735,450.185669 
	C345.104126,449.903320 345.614380,450.541290 346.070557,451.599548 
	C345.477753,451.435791 344.861023,450.958344 344.190735,450.185669 
z"/>
<path fill="#DB9B9E" opacity="1.000000" stroke="none" 
	d="
M369.354797,442.967468 
	C368.959595,442.948242 368.511230,442.659821 368.042389,442.086029 
	C368.448486,442.099884 368.875061,442.399048 369.354797,442.967468 
z"/>
<path fill="#843E40" opacity="1.000000" stroke="none" 
	d="
M790.999023,431.149109 
	C791.122681,430.874664 791.310669,430.791229 791.781372,430.833679 
	C791.779724,431.215729 791.900330,432.537170 790.999023,431.149109 
z"/>
<path fill="#843E40" opacity="1.000000" stroke="none" 
	d="
M787.994751,431.147156 
	C788.116882,430.869568 788.307434,430.785614 788.784790,430.828247 
	C788.771301,431.177216 788.924805,432.585022 787.994751,431.147156 
z"/>
<path fill="#0D0809" opacity="1.000000" stroke="none" 
	d="
M486.423584,435.008087 
	C486.107086,434.847137 486.029694,434.673859 486.067505,434.240173 
	C486.586456,434.151611 486.990204,434.323425 487.393982,434.495270 
	C487.150208,434.662109 486.906464,434.828949 486.423584,435.008087 
z"/>
<path fill="#DB9B9E" opacity="1.000000" stroke="none" 
	d="
M755.897339,437.853943 
	C755.471802,437.719086 755.089111,437.293915 754.749207,436.568115 
	C755.174683,436.699524 755.557434,437.131592 755.897339,437.853943 
z"/>
<path fill="#0D0809" opacity="1.000000" stroke="none" 
	d="
M486.427582,438.008240 
	C486.111542,437.847107 486.034271,437.673767 486.072296,437.240082 
	C486.590546,437.151672 486.993530,437.323669 487.396515,437.495636 
	C487.153137,437.662445 486.909760,437.829254 486.427582,438.008240 
z"/>
<path fill="#0D0809" opacity="1.000000" stroke="none" 
	d="
M486.422607,444.008179 
	C486.106812,443.846924 486.030090,443.673401 486.069092,443.239685 
	C486.587982,443.152008 486.991150,443.324493 487.394287,443.496948 
	C487.150085,443.663239 486.905884,443.829559 486.422607,444.008179 
z"/>
<path fill="#DB9B9E" opacity="1.000000" stroke="none" 
	d="
M371.083130,444.659363 
	C370.662506,444.661133 370.220490,444.394012 369.764893,443.847595 
	C370.188110,443.842346 370.624908,444.116394 371.083130,444.659363 
z"/>
<path fill="#0D0809" opacity="1.000000" stroke="none" 
	d="
M486.426697,441.008331 
	C486.111176,440.846954 486.034454,440.673431 486.073425,440.239807 
	C486.591644,440.152130 486.994171,440.324554 487.396698,440.496948 
	C487.152985,440.663361 486.909241,440.829803 486.426697,441.008331 
z"/>
<path fill="#DB9B9E" opacity="1.000000" stroke="none" 
	d="
M343.289673,449.112000 
	C343.543640,449.024719 343.825348,449.178955 344.107788,449.592896 
	C343.749817,449.836792 343.486084,449.670410 343.289673,449.112000 
z"/>
<path fill="#DB9B9E" opacity="1.000000" stroke="none" 
	d="
M703.916748,450.827545 
	C703.710754,450.980042 703.360107,450.921539 702.918945,450.594299 
	C703.142944,450.422546 703.457520,450.519531 703.916748,450.827545 
z"/>
<path fill="#843E40" opacity="1.000000" stroke="none" 
	d="
M521.020447,363.610687 
	C520.946045,363.884766 520.756226,363.968628 520.255493,364.027344 
	C520.095032,363.528168 520.331909,363.196808 521.020447,363.610687 
z"/>
<path fill="#DB9B9E" opacity="1.000000" stroke="none" 
	d="
M348.155457,454.174683 
	C348.392059,454.058807 348.697723,454.189575 349.052002,454.577942 
	C348.808624,454.697449 348.516571,454.559357 348.155457,454.174683 
z"/>
<path fill="#0D0809" opacity="1.000000" stroke="none" 
	d="
M485.610779,462.848724 
	C485.344635,462.665100 485.396057,462.414001 485.797089,462.126892 
	C486.019379,462.321625 485.946625,462.551727 485.610779,462.848724 
z"/>
<path fill="#030202" opacity="1.000000" stroke="none" 
	d="
M531.103760,203.794128 
	C536.381287,207.588608 541.859619,210.270355 546.420166,214.730331 
	C548.755981,217.014664 552.496887,218.753021 555.018677,221.380020 
	C565.621765,232.425507 573.009766,245.218887 576.934326,260.189667 
	C577.821533,263.574188 577.300598,267.210327 579.246582,270.527008 
	C580.552246,272.752380 579.027405,275.075775 575.957214,275.256836 
	C573.964966,275.374329 571.962341,275.333832 569.964355,275.333832 
	C512.684937,275.334320 455.405273,275.246948 398.126587,275.444916 
	C391.680450,275.467194 390.353607,272.129517 391.263550,267.024353 
	C394.599823,248.306580 402.825653,232.118042 416.752411,219.037567 
	C428.776855,207.743835 443.135681,200.376404 458.854401,196.031403 
	C462.597504,194.996750 467.418457,194.872726 471.002045,193.890121 
	C477.252594,192.176285 483.350891,192.059494 489.270935,192.726974 
	C495.082367,193.382217 501.011536,194.350235 506.845978,195.699539 
	C515.168823,197.624359 523.174133,199.813873 531.103760,203.794128 
z"/>
<path fill="#0D0809" opacity="1.000000" stroke="none" 
	d="
M478.613342,145.284821 
	C485.888580,143.343262 492.094604,144.171753 497.023499,149.997498 
	C500.948090,154.636230 499.369415,159.154694 498.374390,164.806458 
	C497.416443,170.247589 494.208923,171.055359 491.076965,173.285233 
	C484.793335,177.758972 474.099701,172.982208 471.288422,166.584198 
	C470.189240,164.082703 468.136414,161.014862 469.512665,158.197906 
	C471.770020,153.577255 471.839508,147.268341 478.613342,145.284821 
z"/>
<path fill="#DB9B9E" opacity="1.000000" stroke="none" 
	d="
M458.597534,325.621216 
	C453.911072,325.945618 448.966614,325.956085 443.566132,325.958862 
	C448.110168,323.928711 453.243011,325.047668 458.597534,325.621216 
z"/>
<path fill="#843E40" opacity="1.000000" stroke="none" 
	d="
M191.582062,386.618225 
	C191.813736,410.473572 191.839447,434.652344 191.829437,459.277588 
	C190.447540,453.484894 191.235977,447.164825 191.208359,440.890839 
	C191.129196,422.908356 191.302231,404.924805 191.582062,386.618225 
z"/>
</svg>